grf
version=1
nRows=14
nColumns=37
inDegrees=no
endheader
time	ground_force_1_vx	ground_force_1_vy	ground_force_1_vz	ground_force_1_px	ground_force_1_py	ground_force_1_pz	ground_moment_1_mx	ground_moment_1_my	ground_moment_1_mz	ground_force_2_vx	ground_force_2_vy	ground_force_2_vz	ground_force_2_px	ground_force_2_py	ground_force_2_pz	ground_moment_2_mx	ground_moment_2_my	ground_moment_2_mz	ground_force_3_vx	ground_force_3_vy	ground_force_3_vz	ground_force_3_px	ground_force_3_py	ground_force_3_pz	ground_moment_3_mx	ground_moment_3_my	ground_moment_3_mz	ground_force_4_vx	ground_force_4_vy	ground_force_4_vz	ground_force_4_px	ground_force_4_py	ground_force_4_pz	ground_moment_4_mx	ground_moment_4_my	ground_moment_4_mz
      4.70000000	      0.00000000	     -0.00000000	      0.00000000	      0.00000000	      0.00000000	      0.00000000	      0.00000000	      0.00000000	      0.00000000	      2.85915112	    127.59503937	   -563.02130127	   -313.10931959	  -1170.71090377	      0.00000000	      0.00000000	      0.00000000	   5558.96041114	    -36.72186441	   -149.42712081	   -676.23712158	   -332.93012879	   -603.91383397	      0.00000000	      0.00000000	     -0.00000000	 -15971.29592207	    -35.34487773	     16.26243137	     75.85733032	    602.74617205	   -562.06016540	      0.00000000	      0.00000000	     -0.00000000	    -73.48259806
      4.71000000	      0.00000000	     -0.00000000	      0.00000000	      0.00000000	      0.00000000	      0.00000000	      0.00000000	      0.00000000	      0.00000000	      0.97695607	    125.66516113	   -554.86297607	   -312.97179336	  -1172.92895271	      0.00000000	      0.00000000	      0.00000000	   5014.14187108	    -37.32545587	   -144.20325907	   -655.55230713	   -332.36842601	   -604.44564861	      0.00000000	      0.00000000	     -0.00000000	 -15392.64195180	    -35.50200894	     16.10456777	     75.55673981	    601.77116562	   -564.65123902	      0.00000000	      0.00000000	      0.00000000	    116.19970418
      4.72000000	      0.00000000	     -0.00000000	      0.00000000	      0.00000000	      0.00000000	      0.00000000	      0.00000000	      0.00000000	      0.00000000	     -1.03196847	    123.36503601	   -543.17382812	   -313.28402042	  -1172.60197048	      0.00000000	      0.00000000	      0.00000000	   4891.56239842	    -36.00373529	   -138.89588613	   -635.05621338	   -333.02232404	   -605.30715160	      0.00000000	      0.00000000	      0.00000000	 -15130.95804908	    -34.99103787	     16.11741753	     74.45198059	    611.75795791	   -565.70176590	      0.00000000	      0.00000000	     -0.00000000	    -45.60724021
      4.73000000	      0.00000000	     -0.00000000	      0.00000000	      0.00000000	      0.00000000	      0.00000000	      0.00000000	      0.00000000	      0.00000000	     -2.24713635	    121.14086151	   -531.80554199	   -313.65101889	  -1172.67960664	      0.00000000	      0.00000000	      0.00000000	   4833.14879209	    -34.34375030	   -134.39198003	   -616.10308838	   -333.43382713	   -605.35766001	      0.00000000	      0.00000000	     -0.00000000	 -14548.31123944	    -35.17814493	     16.34917376	     75.55341339	    605.25846595	   -560.87752936	      0.00000000	      0.00000000	     -0.00000000	   -211.67347319
      4.74000000	      0.00000000	     -0.00000000	      0.00000000	      0.00000000	      0.00000000	      0.00000000	      0.00000000	      0.00000000	      0.00000000	     -3.31739450	    120.02547455	   -519.84796143	   -312.97558525	  -1173.48495178	      0.00000000	      0.00000000	      0.00000000	   4592.89492580	    -32.81469331	   -129.26572894	   -594.97070312	   -334.00832877	   -605.85127647	      0.00000000	      0.00000000	     -0.00000000	 -13993.49527233	    -35.16543058	     16.01044772	     75.78947449	    606.47206541	   -562.65067417	      0.00000000	      0.00000000	      0.00000000	     47.54613755
      4.75000000	      0.00000000	     -0.00000000	      0.00000000	      0.00000000	      0.00000000	      0.00000000	      0.00000000	      0.00000000	      0.00000000	     -4.08738136	    117.83447266	   -512.41571045	   -314.24401760	  -1172.97799252	      0.00000000	      0.00000000	      0.00000000	   4373.12938097	    -31.16196378	   -123.61787905	   -574.98852539	   -334.74543873	   -606.66017488	      0.00000000	      0.00000000	     -0.00000000	 -13611.17421568	    -35.59636926	     16.44408156	     75.11964417	    604.18227527	   -562.42046547	      0.00000000	      0.00000000	     -0.00000000	    -55.93511936
      4.76000000	      0.00000000	     -0.00000000	      0.00000000	      0.00000000	      0.00000000	      0.00000000	      0.00000000	      0.00000000	      0.00000000	     -2.93992996	    115.22955322	   -502.65460205	   -315.61078323	  -1172.84747313	      0.00000000	      0.00000000	      0.00000000	   3997.26342603	    -29.54070167	   -117.78511552	   -555.75445557	   -336.58963273	   -607.80584758	      0.00000000	      0.00000000	     -0.00000000	 -12863.05771469	    -35.24663403	     16.10055469	     75.83697510	    603.44854392	   -563.72728689	      0.00000000	      0.00000000	      0.00000000	     92.10486065
      4.77000000	      0.00000000	     -0.00000000	      0.00000000	      0.00000000	      0.00000000	      0.00000000	      0.00000000	      0.00000000	      0.00000000	     -1.01908290	    111.40905762	   -496.87719727	   -317.68634867	  -1172.59239272	      0.00000000	      0.00000000	      0.00000000	   3722.93493277	    -27.24214190	   -111.07714606	   -536.55249023	   -338.10995608	   -609.04023794	      0.00000000	      0.00000000	     -0.00000000	 -12440.67049821	    -35.05985497	     16.55046197	     76.09493256	    601.73852520	   -565.15434518	      0.00000000	      0.00000000	     -0.00000000	   -183.85600306
      4.78000000	      0.00000000	     -0.00000000	      0.00000000	      0.00000000	      0.00000000	      0.00000000	      0.00000000	      0.00000000	      0.00000000	      0.77572560	    108.56083679	   -487.75686646	   -319.61108308	  -1171.11780977	      0.00000000	      0.00000000	      0.00000000	   3349.51686546	    -25.70671232	   -104.49229206	   -519.46112061	   -339.54972862	   -610.48796091	      0.00000000	      0.00000000	     -0.00000000	 -11978.09035867	    -35.26205306	     15.85792087	     75.45471191	    605.63909053	   -564.07888088	      0.00000000	     -0.00000000	     -0.00000000	    194.74217698
      4.79000000	      0.00000000	     -0.00000000	      0.00000000	      0.00000000	      0.00000000	      0.00000000	      0.00000000	      0.00000000	      0.00000000	      0.80671674	    106.67381287	   -482.93316650	   -321.16259930	  -1170.08705917	      0.00000000	      0.00000000	      0.00000000	   3071.01298254	    -24.73118699	    -99.59638761	   -503.73544312	   -341.50854918	   -611.30907770	      0.00000000	      0.00000000	     -0.00000000	 -11644.33912871	    -35.59308101	     16.27305533	     74.82726288	    609.17263209	   -564.39293205	      0.00000000	      0.00000000	     -0.00000000	    -17.97056392
      4.80000000	      0.00000000	     -0.00000000	      0.00000000	      0.00000000	      0.00000000	      0.00000000	      0.00000000	      0.00000000	      0.00000000	      2.16728115	    104.33426666	   -481.04589844	   -323.78033906	  -1170.38216492	      0.00000000	      0.00000000	      0.00000000	   2607.13571487	    -23.61208215	    -94.40093788	   -488.81225586	   -343.94559546	   -613.33409832	      0.00000000	      0.00000000	     -0.00000000	 -11456.63341211	    -35.58214811	     16.00337340	     76.50756836	    603.97181624	   -562.63406523	      0.00000000	      0.00000000	      0.00000000	    109.93265216
      4.81000000	      0.00000000	     -0.00000000	      0.00000000	      0.00000000	      0.00000000	      0.00000000	      0.00000000	      0.00000000	      0.00000000	      5.18158579	    101.06651306	   -474.89562988	   -326.68656687	  -1168.85775812	      0.00000000	      0.00000000	      0.00000000	   2405.86436069	    -22.28487792	    -88.92156025	   -479.32705688	   -346.00724767	   -614.76653975	      0.00000000	      0.00000000	     -0.00000000	 -11021.77113133	    -34.89612438	     16.20190163	     76.84415436	    600.07461189	   -560.54960420	      0.00000000	      0.00000000	     -0.00000000	   -151.51904906
      4.82000000	      0.00000000	     -0.00000000	      0.00000000	      0.00000000	      0.00000000	      0.00000000	      0.00000000	      0.00000000	      0.00000000	      7.31887913	     98.20725250	   -470.08251953	   -329.47721945	  -1167.08264008	      0.00000000	      0.00000000	      0.00000000	   2095.36509351	    -19.40955705	    -83.97588942	   -467.13635254	   -349.35457342	   -616.82514925	      0.00000000	      0.00000000	     -0.00000000	 -10635.81167335	    -35.33968591	     16.45000385	     75.77749634	    604.45616332	   -562.15417686	      0.00000000	      0.00000000	     -0.00000000	   -244.39539701
      4.83000000	      0.00000000	     -0.00000000	      0.00000000	      0.00000000	      0.00000000	      0.00000000	      0.00000000	      0.00000000	      0.00000000	      9.28497601	     95.24855042	   -466.86181641	   -333.17683628	  -1165.22743489	      0.00000000	      0.00000000	      0.00000000	   1859.23258520	    -15.59891722	    -78.76528794	   -458.36630249	   -352.02207237	   -618.62567257	      0.00000000	      0.00000000	     -0.00000000	 -10266.95052434	    -35.23960735	     16.19807170	     76.11525726	    602.07762532	   -562.25904382	      0.00000000	      0.00000000	      0.00000000	     55.25183747
